<?xml version="1.0" encoding="UTF-8"?>
<!DOCTYPE svg PUBLIC "-//W3C//DTD SVG 1.1//EN" "http://www.w3.org/Graphics/SVG/1.1/DTD/svg11.dtd">
<svg xmlns="http://www.w3.org/2000/svg" xml:space="preserve" width="62.824mm" height="30.0201mm" version="1.1" style="shape-rendering:geometricPrecision; text-rendering:geometricPrecision; image-rendering:optimizeQuality; fill-rule:evenodd; clip-rule:evenodd"
viewBox="0 0 2891.68 1381.77"
 xmlns:xlink="http://www.w3.org/1999/xlink"
 xmlns:xodm="http://www.corel.com/coreldraw/odm/2003">
 <defs>
  <style type="text/css">
   <![CDATA[
    .fil1 {fill:#FF0066}
    .fil2 {fill:#FF6699}
    .fil0 {fill:black;fill-rule:nonzero}
   ]]>
  </style>
 </defs>
 <g id="Layer_x0020_1">
  <metadata id="CorelCorpID_0Corel-Layer"/>
  <path class="fil0" d="M171.31 761.18c-1.62,9.74 -6.09,30.04 -13.4,60.89 -7.3,30.85 -14.2,64.95 -20.7,102.3 -6.5,37.35 -12.18,74.69 -17.05,112.04 -4.87,37.35 -6.09,67.79 -3.65,91.33 2.43,23.55 9.33,37.35 20.7,41.41 11.36,4.06 29.23,-9.33 53.58,-40.19 32.48,-38.97 59.27,-82.41 80.38,-130.31 21.11,-47.9 35.72,-97.02 43.84,-147.36 1.62,-9.74 5.68,-15.83 12.18,-18.27 6.49,-2.43 13.39,-2.84 20.7,-1.22 7.31,1.62 13.4,4.87 18.27,9.74 4.87,4.87 6.49,9.74 4.87,14.61 -8.12,51.96 -23.95,106.36 -47.5,163.19 -23.54,56.84 -53.99,104.74 -91.34,143.7 -42.22,47.09 -83.62,69.01 -124.22,65.77 -40.6,-3.25 -69.82,-34.1 -87.68,-92.56 -8.12,-27.6 -13.8,-58.05 -17.05,-91.33 -3.24,-33.29 -4.06,-66.98 -2.43,-101.08 1.62,-34.1 4.06,-67.79 7.31,-101.08 3.24,-33.29 7.3,-63.74 12.18,-91.34 1.62,-12.99 11.36,-25.17 29.23,-36.53 17.86,-11.37 36.53,-18.27 56.02,-20.7 19.49,-2.43 36.54,0.81 51.15,9.74 14.61,8.93 19.48,28.01 14.61,57.24zm243.57 -287.41c40.59,-97.43 86.06,-182.67 136.4,-255.74 53.59,-79.57 107.98,-135.99 163.19,-169.28 55.21,-33.29 104.74,-49.52 148.58,-48.71 43.84,0.81 79.56,15.83 107.17,45.06 27.6,29.23 42.62,65.76 45.06,109.6 2.43,43.84 -11.37,92.56 -41.41,146.14 -30.04,53.59 -80.78,104.73 -152.23,153.45 -82.81,60.08 -175.37,92.55 -277.67,97.42 -16.24,43.84 -32.48,98.24 -48.72,163.19 -16.23,64.95 -27.6,131.53 -34.1,199.72 -6.49,68.2 -5.27,133.56 3.65,196.07 8.93,62.52 30.44,113.26 64.55,152.23 32.47,37.35 70.23,52.37 113.26,45.06 43.03,-7.31 83.22,-28.01 120.57,-62.11 37.35,-34.1 67.39,-77.53 90.12,-130.31 22.73,-52.78 30.85,-107.58 24.36,-164.41 -1.62,-16.24 2.43,-27.2 12.17,-32.88 9.74,-5.68 20.7,-8.12 32.88,-7.3 12.18,0.81 23.14,5.27 32.88,13.39 9.74,8.12 14.61,17.86 14.61,29.23 -3.25,58.46 -21.11,118.13 -53.59,179.02 -32.47,60.89 -73.47,112.85 -123,155.88 -49.52,43.03 -103.92,71.85 -163.19,86.47 -59.27,14.61 -118.13,5.68 -176.58,-26.79 -40.6,-22.73 -72.26,-53.99 -94.99,-93.77 -22.73,-39.78 -38.56,-84.03 -47.5,-132.75 -8.93,-48.71 -12.18,-100.27 -9.74,-154.66 2.43,-54.4 8.11,-107.98 17.05,-160.75 8.93,-52.77 20.29,-102.7 34.1,-149.79 13.8,-47.09 27.2,-88.5 40.19,-124.22 -27.6,-8.12 -51.55,-16.64 -71.85,-25.57 -20.3,-8.93 -41.81,-22.33 -64.55,-40.19 -9.74,-6.5 -14.21,-16.24 -13.39,-29.23 0.81,-12.99 4.46,-24.36 10.96,-34.1 6.49,-9.74 15.02,-16.64 25.57,-20.7 10.55,-4.06 21.51,-0.41 32.88,10.96 12.99,16.23 28.82,31.66 47.5,46.28 18.67,14.61 36.94,25.98 54.8,34.1zm153.44 19.48c42.22,-3.24 81.59,-12.58 118.13,-28.01 36.53,-15.42 71.04,-33.69 103.52,-54.8 48.71,-34.1 86.06,-70.63 112.04,-109.61 25.98,-38.97 43.03,-75.1 51.15,-108.39 8.12,-33.29 7.71,-61.3 -1.22,-84.03 -8.93,-22.73 -24.76,-34.51 -47.5,-35.32 -22.73,-0.81 -51.96,12.18 -87.68,38.97 -35.72,26.79 -75.5,72.66 -119.35,137.62 -48.71,71.44 -91.74,152.63 -129.09,243.56zm416.5 299.59c4.87,-3.25 13.39,-8.12 25.57,-14.61 12.18,-6.49 26.79,-13.8 43.84,-21.92 17.05,-8.11 34.91,-15.83 53.59,-23.14 18.67,-7.3 36.94,-13.39 54.8,-18.26 37.35,-8.12 62.52,-5.68 75.5,7.3 12.99,12.99 10.55,39.78 -7.3,80.38 -6.5,14.61 -15.43,37.75 -26.79,69.42 -11.37,31.66 -23.14,65.36 -35.32,101.08 -12.18,35.72 -23.54,71.04 -34.1,105.95 -10.55,34.91 -16.64,63.74 -18.26,86.46 -1.62,22.73 2.03,36.54 10.96,41.41 8.93,4.87 25.57,-4.87 49.93,-29.23 25.98,-25.98 53.59,-64.95 82.81,-116.91 29.23,-51.96 60.08,-121.78 92.55,-209.47 8.12,-19.48 20.3,-25.17 36.53,-17.05 16.24,8.12 22.73,18.67 19.49,31.66 -34.1,90.93 -67.39,164.81 -99.86,221.64 -32.48,56.83 -63.33,99.86 -92.55,129.09 -37.35,37.35 -69.42,57.65 -96.21,60.89 -26.79,3.25 -48.71,-4.46 -65.76,-23.14 -17.05,-18.67 -29.63,-45.87 -37.75,-81.59 -8.12,-35.72 -12.18,-73.88 -12.18,-114.48 0,-40.59 3.65,-81.19 10.96,-121.78 7.31,-40.6 18.27,-75.5 32.88,-104.73 -16.24,6.49 -33.29,13.39 -51.15,20.7 -17.86,7.3 -34.91,12.58 -51.15,15.83 -16.24,3.25 -30.85,3.65 -43.84,1.22 -12.99,-2.43 -23.54,-10.15 -31.66,-23.14 -9.74,-16.24 -15.83,-37.35 -18.27,-63.33 -2.43,-25.98 -0.41,-51.15 6.09,-75.5 6.49,-24.36 16.64,-45.06 30.45,-62.11 13.8,-17.05 32.88,-25.57 57.24,-25.57 25.98,0 45.87,14.61 59.68,43.84 13.8,29.23 6.9,72.26 -20.7,129.09zm815.95 -43.84c-1.62,8.12 -4.46,25.57 -8.52,52.37 -4.06,26.79 -8.12,56.43 -12.18,88.9 -4.06,32.47 -7.71,64.55 -10.96,96.21 -3.25,31.66 -4.87,55.61 -4.87,71.85 0,22.73 1.62,38.16 4.87,46.28 3.24,8.12 7.3,11.77 12.17,10.96 4.87,-0.81 10.15,-5.28 15.83,-13.4 5.68,-8.12 11.77,-17.05 18.27,-26.79 40.59,-73.07 73.88,-147.76 99.86,-224.08 4.87,-11.37 10.96,-18.27 18.26,-20.7 7.31,-2.43 14.21,-2.43 20.7,0 6.49,2.43 11.37,7.31 14.61,14.61 3.25,7.31 3.25,15.83 0,25.57 -14.61,37.35 -31.26,77.13 -49.93,119.35 -18.67,42.22 -37.75,79.57 -57.24,112.04 -14.61,24.36 -31.26,44.66 -49.93,60.89 -18.67,16.24 -37.35,24.76 -56.43,25.58 -18.67,0.81 -37.35,-7.71 -55.62,-25.58 -18.26,-17.86 -33.29,-49.52 -44.65,-94.99 -6.49,-22.73 -11.37,-52.37 -13.8,-88.9 -2.43,-36.53 -3.65,-75.91 -3.65,-118.13 -12.99,35.72 -27.2,70.63 -42.63,104.73 -15.42,34.1 -28.01,60.08 -37.75,77.94 -16.24,27.6 -33.69,51.15 -52.37,70.63 -18.67,19.48 -36.94,30.45 -54.8,32.88 -17.86,2.43 -34.91,-5.28 -51.15,-23.14 -16.24,-17.86 -30.04,-51.15 -41.41,-99.86 -8.12,-30.85 -13.39,-63.74 -15.83,-98.64 -2.43,-34.91 -2.84,-69.01 -1.22,-102.3 1.62,-33.29 4.46,-64.14 8.52,-92.56 4.06,-28.41 8.52,-52.37 13.4,-71.85 4.87,-21.11 16.23,-36.13 34.1,-45.06 17.86,-8.93 36.54,-12.58 56.02,-10.96 19.48,1.62 35.72,7.71 48.71,18.27 12.99,10.55 17.05,24.76 12.18,42.62 -3.25,9.74 -7.3,27.6 -12.18,53.59 -4.87,25.98 -10.15,55.61 -15.83,88.9 -5.68,33.29 -11.37,67.39 -17.05,102.3 -5.68,34.91 -9.33,65.36 -10.96,91.34 -1.62,19.48 -2.03,35.72 -1.22,48.71 0.81,12.99 2.84,21.11 6.09,24.36 3.24,3.25 8.52,0.41 15.83,-8.52 7.31,-8.93 17.45,-25.57 30.45,-49.93 9.74,-16.24 20.7,-38.16 32.88,-65.76 12.18,-27.61 24.36,-56.84 36.54,-87.68 12.18,-30.85 23.95,-60.9 35.32,-90.12 11.36,-29.23 21.11,-53.58 29.23,-73.07 0,-38.97 9.74,-68.6 29.63,-88.9 19.89,-20.3 40.6,-29.63 62.11,-28.01 21.51,1.62 40.19,16.24 55.61,43.84 15.43,27.61 19.08,69.01 10.96,124.22zm165.62 -73.07c-11.37,-3.25 -15.83,0.81 -13.4,12.18 2.43,11.36 8.52,26.79 18.27,46.28 9.74,19.48 22.33,41.41 37.75,65.76 15.42,24.36 30.45,47.9 45.06,70.63 14.61,22.73 27.2,43.03 37.75,60.89 10.55,17.86 17.45,30.04 20.7,36.54 17.86,-16.24 35.32,-34.1 52.37,-53.59 17.05,-19.48 32.07,-40.59 45.06,-63.33 4.87,-9.74 10.96,-15.42 18.27,-17.05 7.31,-1.62 14.21,-0.81 20.7,2.43 6.49,3.24 10.96,8.52 13.39,15.83 2.44,7.3 1.22,15.83 -3.65,25.57 -16.24,29.23 -34.91,55.61 -56.02,79.16 -21.11,23.54 -43.03,45.06 -65.77,64.55 27.61,69.82 35.72,126.25 24.36,169.28 -11.36,43.03 -31.26,73.88 -59.68,92.55 -28.41,18.67 -60.08,26.79 -94.99,24.36 -34.91,-2.43 -62.11,-13.8 -81.59,-34.1 -19.49,-20.29 -25.98,-47.9 -19.49,-82.81 6.5,-34.91 36.54,-75.1 90.12,-120.57 -3.25,-6.49 -8.52,-17.45 -15.83,-32.88 -7.3,-15.42 -15.83,-33.29 -25.57,-53.58 -9.74,-20.3 -19.89,-43.03 -30.45,-68.2 -10.55,-25.17 -19.89,-49.93 -28.01,-74.29 -9.74,-30.85 -17.86,-60.49 -24.36,-88.9 -6.49,-28.42 -8.12,-53.18 -4.87,-74.29 3.24,-21.11 12.18,-37.35 26.79,-48.71 14.61,-11.37 37.35,-14.61 68.2,-9.74 40.6,6.49 73.07,24.36 97.43,53.59 24.36,29.23 30.04,64.95 17.05,107.17 -3.24,8.12 -8.93,13.8 -17.05,17.05 -8.12,3.25 -16.24,3.65 -24.36,1.22 -8.12,-2.43 -14.61,-6.9 -19.48,-13.4 -4.87,-6.49 -4.87,-14.61 0,-24.35 11.36,-22.73 11.77,-41.41 1.22,-56.02 -10.55,-14.61 -27.2,-24.36 -49.93,-29.23zm43.84 455.47c-22.73,22.73 -37.75,42.22 -45.06,58.46 -7.3,16.24 -9.33,28.82 -6.09,37.75 3.25,8.93 9.34,14.21 18.27,15.83 8.93,1.62 18.27,0 28.01,-4.87 11.37,-8.11 19.49,-20.7 24.36,-37.75 4.87,-17.05 -1.62,-40.19 -19.48,-69.42zm353.17 -518.79c17.86,-25.98 32.07,-53.59 42.62,-82.81 10.55,-29.23 17.45,-57.65 20.7,-85.25 1.62,-37.35 1.62,-62.92 0,-76.72 -1.62,-13.8 -4.06,-19.08 -7.31,-15.83 -3.24,3.24 -7.71,12.99 -13.39,29.23 -5.68,16.23 -10.96,35.72 -15.83,58.46 -8.12,30.85 -14.61,62.92 -19.48,96.21 -4.87,33.29 -7.3,58.86 -7.3,76.72zm119.35 -163.19c-4.87,42.22 -17.46,87.28 -37.75,135.18 -20.3,47.9 -51.56,88.9 -93.77,123 -12.99,125.03 -15.43,249.25 -7.31,372.66 17.86,-42.22 39.78,-88.09 65.77,-137.62 25.98,-49.53 51.96,-95.4 77.94,-137.62 21.11,-34.1 44.25,-57.24 69.42,-69.42 25.17,-12.18 47.9,-14.61 68.2,-7.31 20.3,7.31 35.32,23.54 45.06,48.71 9.74,25.17 9.74,57.24 0,96.21 -8.12,27.61 -17.86,64.14 -29.23,109.61 -11.37,45.47 -20.3,87.28 -26.79,125.44 -6.49,38.16 -7.71,65.36 -3.65,81.59 4.06,16.24 18.27,8.93 42.62,-21.92 16.24,-19.49 32.88,-42.63 49.93,-69.42 17.05,-26.79 33.69,-54.4 49.93,-82.81 16.24,-28.42 31.66,-56.84 46.28,-85.25 14.61,-28.42 26.79,-54.8 36.54,-79.16 3.24,-8.12 8.52,-12.99 15.83,-14.61 7.3,-1.62 14.2,-0.81 20.7,2.43 6.5,3.25 11.77,8.12 15.83,14.61 4.06,6.49 4.46,12.99 1.22,19.48 -11.37,24.36 -24.36,51.56 -38.97,81.6 -14.61,30.04 -30.45,59.67 -47.5,88.9 -17.05,29.23 -34.5,57.24 -52.37,84.03 -17.86,26.79 -35.72,50.75 -53.59,71.85 -30.85,35.72 -57.24,56.02 -79.16,60.89 -21.92,4.87 -40.59,-1.22 -56.02,-18.27 -15.43,-17.05 -27.2,-41.41 -35.32,-73.07 -8.12,-31.66 -13.8,-65.76 -17.05,-102.3 -3.25,-36.53 -4.06,-73.47 -2.44,-110.82 1.62,-37.35 5.68,-69.01 12.18,-94.99 -30.85,51.96 -60.08,106.36 -87.68,163.19 -27.6,56.83 -48.71,102.3 -63.33,136.4 -11.37,25.98 -26.39,45.06 -45.06,57.24 -18.67,12.17 -37.75,17.86 -57.24,17.05 -19.48,-0.81 -36.13,-8.12 -49.93,-21.92 -13.8,-13.8 -21.51,-34.5 -23.14,-62.11 -3.25,-56.83 -3.65,-116.5 -1.22,-179.02 2.43,-62.52 7.71,-125.03 15.83,-187.55 8.12,-62.52 19.08,-123.81 32.88,-183.89 13.8,-60.08 31.26,-116.1 52.37,-168.06 21.11,-50.34 43.84,-87.68 68.2,-112.04 24.36,-24.36 46.28,-35.73 65.77,-34.1 19.48,1.62 34.91,16.24 46.28,43.84 11.36,27.6 14.61,67.39 9.74,119.35z"/>
  <g id="_3059863109760">
   <path class="fil1" d="M124.77 484.38c28.27,4.45 47.58,30.97 43.14,59.24 -5.07,66.97 -47.2,123.72 -71.33,119.92 -24.13,-3.8 -43.31,-78.95 -31.05,-136.03 4.45,-28.27 30.97,-47.58 59.24,-43.13z"/>
   <path class="fil2" d="M201.59 527.23c18.63,16.33 20.48,44.67 4.15,63.3 -34.69,46.64 -91.77,68.67 -107.66,54.73 -15.89,-13.94 4.84,-77.79 40.21,-113.88 16.34,-18.62 44.67,-20.48 63.3,-4.15z"/>
  </g>
 </g>
</svg>
