<?xml version="1.0" standalone="no"?>
<!DOCTYPE svg PUBLIC "-//W3C//DTD SVG 20010904//EN"
 "http://www.w3.org/TR/2001/REC-SVG-20010904/DTD/svg10.dtd">
<svg version="1.0" xmlns="http://www.w3.org/2000/svg"
 width="2007.000000pt" height="1129.000000pt" viewBox="0 0 2007.000000 1129.000000"
 preserveAspectRatio="xMidYMid meet">

<g transform="translate(0.000000,1129.000000) scale(0.100000,-0.100000)"
fill="#000000" stroke="none">
<path d="M11873 8335 c-82 -23 -146 -59 -214 -122 -158 -147 -270 -359 -335
-639 -26 -109 -28 -136 -29 -319 0 -182 2 -207 23 -275 66 -209 197 -341 383
-385 91 -21 461 -21 544 0 150 39 273 139 337 275 59 123 72 192 72 375 0 249
-49 457 -159 680 -95 193 -237 342 -374 395 -72 28 -180 34 -248 15z m158
-381 c65 -33 155 -171 197 -304 32 -97 42 -154 52 -269 22 -274 -52 -382 -273
-398 -157 -11 -265 36 -314 136 -27 54 -28 61 -27 206 1 127 5 165 28 250 48
184 141 341 227 383 44 22 60 21 110 -4z"/>
<path d="M6866 8289 c-67 -80 -87 -252 -93 -826 -7 -584 8 -773 63 -834 16
-17 33 -19 184 -19 141 0 170 3 181 16 14 17 14 15 -35 229 -88 376 -110 975
-36 975 34 0 169 -331 235 -573 25 -93 52 -182 61 -198 31 -61 120 -87 183
-54 36 18 51 56 90 233 50 221 144 477 207 559 43 56 50 46 64 -95 23 -216
-19 -645 -91 -955 -16 -69 -19 -95 -10 -113 l11 -24 195 0 195 0 19 31 c11 18
25 61 31 97 29 166 38 644 20 1017 -17 327 -46 491 -96 542 -24 24 -27 24
-163 21 -131 -3 -140 -4 -179 -31 -77 -50 -227 -249 -303 -402 -22 -43 -42
-81 -44 -83 -2 -2 -29 47 -61 109 -100 201 -223 367 -291 395 -22 10 -77 14
-172 14 l-139 0 -26 -31z"/>
<path d="M8614 8295 c-59 -90 -103 -504 -91 -855 12 -353 76 -551 227 -702
117 -118 219 -158 400 -158 169 0 278 37 382 130 127 113 208 306 239 572 14
121 6 698 -10 803 -17 107 -41 182 -67 210 -22 24 -26 25 -164 25 -78 0 -150
-5 -161 -10 -25 -14 -25 -56 0 -135 42 -134 63 -300 68 -545 7 -322 -17 -455
-104 -568 -50 -66 -163 -99 -236 -69 -38 17 -98 81 -126 136 -98 191 -100 639
-6 1012 31 119 32 155 6 169 -11 6 -89 10 -180 10 -159 0 -161 0 -177 -25z"/>
<path d="M10057 8290 c-68 -81 -88 -251 -94 -827 -5 -476 3 -671 32 -771 24
-79 26 -80 224 -83 162 -3 174 -2 188 17 8 10 12 28 9 39 -17 61 -66 319 -71
375 -6 57 -3 71 17 110 27 50 113 110 158 110 84 0 220 -293 251 -539 5 -47
15 -91 21 -98 17 -21 381 -18 398 2 9 11 11 38 6 101 -18 225 -106 418 -291
639 l-67 80 43 35 c99 79 180 169 210 235 42 89 56 186 41 276 -26 153 -113
248 -275 302 -57 19 -91 21 -418 25 l-356 4 -26 -32z m611 -275 c51 -22 80
-52 92 -97 25 -92 -90 -227 -272 -318 -110 -55 -132 -60 -148 -31 -15 29 -12
205 5 285 19 90 41 126 95 154 54 27 170 31 228 7z"/>
<path d="M5790 5938 c-106 -11 -285 -51 -344 -76 -39 -18 -46 -27 -65 -76 -26
-69 -71 -288 -71 -344 0 -52 20 -73 59 -62 16 4 78 42 138 83 156 108 273 162
290 134 11 -18 4 -92 -27 -272 -42 -248 -53 -400 -48 -682 5 -271 20 -371 61
-415 22 -23 25 -23 201 -21 166 2 181 3 200 22 l20 21 -32 127 c-65 264 -88
484 -79 768 9 263 49 442 105 459 45 15 137 -37 197 -110 51 -62 72 -65 112
-19 41 48 93 173 100 242 6 51 4 56 -27 88 -103 107 -463 168 -790 133z"/>
<path d="M9965 5931 c-136 -62 -321 -253 -440 -452 -139 -234 -205 -500 -205
-824 0 -249 24 -371 82 -420 l30 -25 192 2 c190 3 191 3 194 26 2 12 -14 54
-37 95 -49 90 -91 212 -91 268 0 128 110 205 327 230 156 17 238 -1 263 -60
25 -62 -8 -202 -89 -375 -26 -56 -51 -113 -54 -127 -13 -50 -2 -54 190 -60
117 -3 186 -2 202 5 65 29 89 124 97 386 19 536 -106 935 -375 1200 -84 83
-186 150 -227 150 -11 0 -37 -9 -59 -19z m115 -413 c53 -54 139 -227 147 -294
7 -62 10 -60 -127 -69 -52 -4 -146 -15 -208 -26 -126 -21 -162 -23 -162 -10 0
31 46 148 84 212 64 108 179 229 219 229 4 0 25 -19 47 -42z"/>
<path d="M11388 5940 c-328 -59 -562 -341 -623 -745 -73 -486 142 -906 510
-1000 78 -20 249 -20 328 1 186 48 321 182 358 355 14 64 7 218 -12 274 -11
32 -19 40 -38 40 -26 0 -25 1 -72 -98 -60 -126 -154 -182 -304 -182 -72 0 -89
4 -150 34 -167 83 -258 248 -258 471 -1 123 17 203 68 307 77 156 216 237 367
214 66 -11 95 -33 108 -83 19 -80 30 -93 85 -96 65 -4 125 20 169 68 39 44 50
86 44 165 -13 157 -189 271 -433 280 -55 2 -121 0 -147 -5z"/>
<path d="M12520 5938 c-106 -11 -285 -51 -344 -76 -39 -18 -46 -27 -65 -76
-26 -69 -71 -288 -71 -344 0 -52 20 -73 59 -62 16 4 78 42 138 83 156 108 273
162 290 134 11 -18 4 -92 -27 -272 -42 -248 -53 -400 -48 -682 5 -271 20 -371
61 -415 22 -23 25 -23 201 -21 166 2 181 3 200 22 l20 21 -32 127 c-65 264
-88 484 -79 768 9 263 49 442 105 459 45 15 137 -37 197 -110 51 -62 72 -65
112 -19 41 48 93 173 100 242 6 51 4 56 -27 88 -103 107 -463 168 -790 133z"/>
<path d="M16030 5934 c-154 -41 -309 -193 -417 -409 -144 -285 -200 -674 -134
-926 29 -114 74 -194 150 -270 71 -70 139 -109 236 -134 83 -21 453 -21 544 0
144 34 270 134 335 266 55 113 68 175 73 349 4 128 1 177 -16 279 -50 296
-176 559 -340 713 -136 128 -281 172 -431 132z m188 -394 c70 -52 151 -196
191 -338 45 -162 52 -380 16 -470 -22 -55 -92 -116 -152 -133 -27 -8 -91 -14
-148 -14 -185 1 -267 64 -295 227 -14 80 0 251 31 373 43 170 146 337 232 375
45 20 78 15 125 -20z"/>
<path d="M3356 5890 c-57 -68 -82 -243 -96 -657 -16 -478 8 -936 52 -992 24
-29 32 -31 214 -31 146 0 184 3 194 14 9 12 6 41 -14 138 -59 291 -81 527 -73
807 6 220 21 339 68 545 16 72 29 140 29 152 0 45 -32 54 -196 54 l-152 0 -26
-30z"/>
<path d="M4053 5905 c-73 -51 -113 -394 -113 -965 1 -406 20 -632 61 -698 l18
-30 138 -4 c76 -2 148 0 161 4 28 10 29 44 2 193 -38 205 -51 358 -56 635 -6
301 -3 323 40 280 38 -38 129 -190 205 -340 94 -184 175 -394 217 -558 41
-163 51 -190 75 -202 10 -6 88 -10 173 -10 152 0 156 0 171 24 51 78 76 514
57 1018 -16 434 -42 603 -99 647 -23 19 -40 21 -150 21 -68 0 -133 -5 -144
-10 -25 -14 -24 -49 1 -165 49 -221 85 -515 78 -635 l-3 -55 -72 132 c-212
386 -385 638 -485 705 -38 26 -48 28 -147 28 -79 0 -112 -4 -128 -15z"/>
<path d="M6887 5902 c-34 -37 -86 -319 -126 -687 -35 -310 -43 -465 -40 -708
4 -221 5 -237 25 -264 l21 -28 504 -5 c277 -3 514 -3 527 -1 13 2 30 14 38 26
13 20 12 30 -16 107 -17 46 -54 131 -83 188 -63 127 -74 132 -167 75 -111 -67
-175 -89 -270 -89 -75 -1 -90 2 -132 26 -67 40 -103 115 -103 218 0 98 30 161
98 207 68 45 122 51 218 23 43 -12 85 -20 94 -16 31 11 155 335 142 369 -4 10
-24 25 -44 34 -64 26 -182 7 -367 -60 -38 -14 -76 -23 -83 -20 -23 9 -35 80
-24 134 14 66 33 100 74 136 57 50 114 66 212 61 76 -4 95 -9 168 -46 45 -23
87 -42 94 -42 20 0 60 61 118 182 62 129 67 164 25 185 -19 10 -130 13 -456
13 -404 0 -432 -1 -447 -18z"/>
<path d="M8083 5905 c-73 -52 -113 -393 -113 -965 1 -405 20 -632 60 -698 l18
-30 169 -4 c134 -4 173 -2 192 10 27 16 27 20 -13 207 -14 66 -29 161 -32 210
-6 84 -4 92 18 125 30 45 112 100 149 100 39 0 86 -51 132 -143 67 -135 127
-344 127 -446 0 -20 5 -42 12 -49 8 -8 67 -12 199 -12 155 0 189 3 199 15 18
21 7 178 -18 270 -43 157 -109 279 -244 447 -43 53 -78 100 -78 105 0 5 20 24
44 41 86 62 164 150 203 229 38 76 38 78 38 197 0 110 -2 126 -27 178 -46 99
-133 167 -261 206 -79 23 -742 30 -774 7z m622 -301 c44 -23 75 -72 75 -119 0
-84 -120 -207 -282 -289 -115 -59 -134 -60 -149 -3 -13 46 0 240 21 309 14 47
55 96 95 114 46 22 190 14 240 -12z"/>
<path d="M13576 5890 c-57 -68 -82 -243 -96 -657 -16 -478 8 -936 52 -992 24
-29 32 -31 214 -31 146 0 184 3 194 14 9 12 6 41 -14 138 -59 291 -81 527 -73
807 6 220 21 339 68 545 16 72 29 140 29 152 0 45 -32 54 -196 54 l-152 0 -26
-30z"/>
<path d="M14182 5904 c-50 -35 -70 -115 -82 -334 -20 -345 28 -644 145 -898
81 -175 232 -359 380 -464 62 -44 74 -49 111 -45 55 6 113 47 212 151 182 193
310 439 379 726 51 213 41 618 -19 778 -37 100 -43 102 -220 102 -210 0 -230
-16 -169 -138 71 -144 96 -264 96 -482 0 -141 -4 -189 -19 -245 -50 -185 -152
-356 -241 -402 l-29 -16 -48 54 c-61 67 -139 218 -174 335 -55 185 -42 495 32
711 60 179 57 183 -171 183 -129 0 -165 -3 -183 -16z"/>
<path d="M14150 3559 c-159 -19 -297 -85 -397 -192 -67 -72 -116 -161 -133
-240 -7 -36 -10 -417 -8 -1248 l3 -1196 44 -88 c58 -117 139 -199 254 -255
169 -83 -106 -75 2712 -78 1782 -2 2532 0 2587 8 158 22 310 97 395 194 37 42
105 156 118 196 6 20 -4 20 -1279 20 -762 0 -1287 4 -1290 9 -4 5 -20 69 -36
143 -16 73 -32 143 -35 155 l-5 22 642 3 643 3 58 27 c75 36 159 115 188 181
l24 52 0 885 0 885 -28 56 c-49 100 -154 176 -277 199 -32 6 -367 10 -874 11
-931 1 -871 -7 -619 77 576 193 1244 186 1828 -19 386 -135 696 -328 984 -612
l103 -102 -5 220 c-3 168 -9 233 -22 275 -71 230 -270 382 -538 410 -116 12
-4931 11 -5037 -1z m2633 -514 c53 -38 97 -73 97 -77 0 -5 -90 -8 -201 -8
-115 0 -199 4 -197 9 4 12 191 151 199 148 4 -1 50 -33 102 -72z m515 -382
l-3 -247 -235 -127 c-304 -166 -280 -157 -327 -125 -47 32 -59 32 -105 1 -20
-14 -41 -25 -45 -25 -5 0 -123 62 -263 138 l-255 137 -3 248 -2 247 620 0 620
0 -2 -247z m-1301 -100 c-3 -2 -22 -3 -42 -1 l-38 3 39 28 39 27 3 -26 c2 -14
1 -28 -1 -31z m1443 1 c0 -2 -18 -4 -40 -4 -38 0 -40 2 -40 30 l0 30 40 -26
c22 -15 40 -28 40 -30z m-1440 -84 c0 -20 -1 -20 -30 -5 -16 9 -30 18 -30 20
0 3 14 5 30 5 23 0 30 -4 30 -20z m1406 5 c-22 -16 -46 -20 -46 -7 0 15 13 22
39 22 25 -1 25 -1 7 -15z m-1218 -192 c180 -97 331 -179 335 -183 8 -7 -651
-460 -667 -460 -3 0 -6 185 -6 410 0 226 2 410 5 410 3 0 153 -79 333 -177z
m1322 -233 c0 -225 -3 -410 -6 -410 -7 0 -644 428 -662 445 -11 10 51 47 320
193 183 100 336 181 341 182 4 0 7 -184 7 -410z m-446 -180 c201 -135 365
-248 366 -252 0 -5 -337 -8 -750 -8 -412 0 -750 3 -750 8 1 13 735 501 752
499 9 -1 181 -112 382 -247z m1504 -507 c-3 -74 -9 -108 -25 -139 -27 -51 -92
-110 -152 -138 l-46 -21 -1665 0 -1665 0 -55 26 c-116 54 -167 130 -177 262
-3 42 -3 82 0 91 6 15 183 16 1898 16 l1891 0 -4 -97z m-2298 -373 c0 -11 -57
-274 -66 -302 -5 -17 -38 -18 -502 -18 -273 0 -502 4 -508 8 -11 7 -54 242
-54 295 l0 27 565 0 c373 0 565 -3 565 -10z m745 -12 c33 -141 85 -385 85
-399 0 -18 -18 -19 -425 -19 -234 0 -425 3 -425 7 0 4 21 103 47 220 l47 213
333 0 333 0 5 -22z m223 -510 c23 -18 42 -36 42 -40 0 -4 -273 -8 -607 -8
l-608 1 45 39 45 40 521 0 520 0 42 -32z"/>
<path d="M16928 2829 c-35 -20 -15 -69 27 -69 41 0 58 36 29 64 -18 18 -32 20
-56 5z m33 -32 c-1 -12 -15 -9 -19 4 -3 6 1 10 8 8 6 -3 11 -8 11 -12z"/>
<path d="M16587 2820 c-80 -21 -154 -76 -190 -144 -29 -56 -30 -155 0 -211 64
-120 212 -180 348 -140 250 72 274 373 39 476 -51 23 -145 32 -197 19z m108
-56 c10 -20 20 -54 22 -74 5 -34 3 -38 -23 -43 -47 -9 -95 3 -90 22 2 9 8 32
11 51 9 43 31 80 49 80 8 0 21 -16 31 -36z m-109 -20 c-4 -15 -10 -40 -13 -56
-5 -24 -10 -29 -31 -26 -36 4 -37 19 -2 66 35 48 56 55 46 16z m200 -14 c29
-44 26 -73 -7 -68 -17 2 -25 15 -35 53 -7 28 -13 51 -14 53 0 1 7 2 15 2 8 0
27 -18 41 -40z m-286 4 c0 -13 -21 -44 -30 -44 -14 0 -12 24 2 38 13 13 28 16
28 6z m360 -24 c0 -5 -4 -10 -10 -10 -5 0 -10 5 -10 10 0 6 5 10 10 10 6 0 10
-4 10 -10z m-396 -142 c1 -74 -2 -99 -12 -103 -22 -8 -29 2 -42 55 -16 68 2
153 32 148 18 -3 20 -11 22 -100z m444 63 c7 -21 12 -51 11 -67 0 -44 -22 -99
-38 -99 -12 0 -15 20 -15 103 -1 87 1 102 15 102 10 0 20 -15 27 -39z m-364 3
c12 -5 16 -21 16 -69 0 -59 -1 -63 -26 -69 -33 -9 -35 -6 -41 48 -9 80 6 107
51 90z m291 -25 c8 -36 -2 -119 -15 -119 -5 0 -20 4 -34 10 -24 9 -26 15 -26
64 0 42 4 57 18 65 32 19 50 13 57 -20z m-107 -41 l-3 -53 -62 -3 -63 -3 0 56
0 55 66 0 65 0 -3 -52z m-15 -125 c-2 -49 -27 -103 -48 -103 -8 0 -21 10 -29
23 -17 26 -37 107 -29 119 2 5 28 8 56 6 l52 -3 -2 -42z m-134 -21 c16 -57 6
-65 -30 -24 -33 36 -38 69 -11 75 22 5 26 0 41 -51z m222 48 c19 0 8 -37 -22
-73 -48 -59 -55 -39 -23 72 2 7 11 10 20 7 9 -3 20 -6 25 -6z m-307 -46 c4 -9
4 -19 1 -22 -6 -6 -35 18 -35 29 0 16 28 10 34 -7z m366 7 c0 -6 -4 -13 -10
-16 -5 -3 -10 1 -10 9 0 9 5 16 10 16 6 0 10 -4 10 -9z"/>
<path d="M16372 2348 c-33 -33 9 -80 54 -59 41 18 25 71 -21 71 -12 0 -26 -5
-33 -12z m48 -29 c0 -5 -7 -9 -15 -9 -15 0 -20 12 -9 23 8 8 24 -1 24 -14z"/>
</g>
</svg>
